<?xml version="1.0" encoding="utf-8"?>
<!-- Generator: Adobe Illustrator 25.0.0, SVG Export Plug-In . SVG Version: 6.00 Build 0)  -->
<svg version="1.1" id="Warstwa_1" xmlns="http://www.w3.org/2000/svg" xmlns:xlink="http://www.w3.org/1999/xlink" x="0px" y="0px"
	 viewBox="0 0 793 780" style="enable-background:new 0 0 793 780;" xml:space="preserve">
<style type="text/css">
	.st0{fill:#F0F0F0;}
	.st1{fill:none;stroke:#F0F0F0;stroke-width:19;}
</style>
<path class="st0" d="M84.3,496.8C53.6,490,28.9,481.4,10,471.1l40.3-83.4c17.9,9.8,38.9,17.7,62.9,23.7c24,5.6,47.6,8.3,70.7,8.3
	c22.6,0,38.2-2.1,46.7-6.4c9-4.3,13.4-10,13.4-17.3c0-6.8-4.2-11.8-12.7-14.7c-8-3.4-18.8-6-32.5-7.7c-13.2-1.7-27.8-3.6-43.8-5.8
	c-16-2.1-32.3-4.9-48.8-8.3c-16-3.8-30.9-9.4-44.5-16.7c-13.2-7.7-23.8-18-31.8-30.8c-8-12.8-12-29.1-12-48.7
	c0-22.2,7.1-41.9,21.2-59c14.6-17.5,35.8-31.2,63.6-41c27.8-10.3,61.7-15.4,101.8-15.4c26.9,0,54,2.6,81.3,7.7
	c27.8,4.7,51.1,12,70,21.8l-40.3,82.7c-18.9-9.8-37.7-16.5-56.5-19.9c-18.9-3.8-36.8-5.8-53.7-5.8c-22.6,0-38.6,2.4-48.1,7.1
	c-9,4.7-13.4,10.5-13.4,17.3s4,12.2,12,16c8,3.4,18.6,6.2,31.8,8.3c13.7,1.7,28.5,3.6,44.5,5.8c16,1.7,32,4.5,48.1,8.3
	c16.5,3.8,31.3,9.6,44.5,17.3c13.7,7.3,24.5,17.3,32.5,30.1c8,12.4,12,28.4,12,48.1c0,6.9-0.8,13.6-2.3,20.1l-247.3,88.8
	C99.8,499.3,84.3,496.8,84.3,496.8z"/>
<path class="st0" d="M723.6,105c-21.2-8.4-44.8-12.6-70.9-12.6c-28.2,0-53.5,4.8-75.9,14.5c-9.3,3.9-17.8,8.6-25.5,14.2v50.2
	l-27.4-21.8c7.5-11.1,16.6-20.6,27.4-28.4V0H432.9v389.3l118.2-42.5V232.3c0-14.5,2.9-26.3,8.7-35.3c5.8-9,13.9-15.6,24.3-19.8
	c10.4-4.5,21.8-6.8,34.2-6.8c17.4,0,30.9,4.4,40.5,13.1c10,8.4,14.9,21.9,14.9,40.7v78.7L792,260.3v-51.2c0-27.1-6.2-49.2-18.7-66.3
	C761.3,125.7,744.7,113.1,723.6,105z"/>
<path class="st0" d="M523.8,149.5l27.4,21.8v-50.2C540.4,129,531.3,138.4,523.8,149.5z"/>
<path class="st1" d="M408.2,760.4c20.7,2.4,41.8,3.7,63.1,3.7c67.4,0,168.5-45.2,168.5-112.4v-7.3l143.4-5.5v-74.2l-143.4,5.5
	l3-170.3l-134,47.9l-1.5,122.3h-95.5l-4.2,74.2h101.2v6.3c0,12.5-4.9,21.8-14.6,27.7c-10.4,6.3-24.7,9.4-43,9.4
	c-9.1,0-18.3-0.9-27.4-2.6c-9.1-1.4-17.4-3.3-24.7-5.8l-43,70C370.1,754.3,387.5,758,408.2,760.4z"/>
<path class="st1" d="M192.7,765.7h119.9v-255l-128.9,46.1v14.2c0,31.4-12.1,54-36.3,67.8c-24.2,14.2-55.8,21.3-94.9,21.3L9,660.7
	v109.7c51.8,0,95.9-5.6,132.2-19.3c17.6-6.4,36.5-20.8,51.5-33.9V765.7z"/>
</svg>
